<?xml version="1.0" standalone="no"?><!DOCTYPE svg PUBLIC "-//W3C//DTD SVG 1.1//EN" "http://www.w3.org/Graphics/SVG/1.1/DTD/svg11.dtd"><svg t="1561875311517" class="icon" viewBox="0 0 1024 1024" version="1.1" xmlns="http://www.w3.org/2000/svg" p-id="4924" xmlns:xlink="http://www.w3.org/1999/xlink" width="200" height="200"><defs><style type="text/css"></style></defs><path d="M457.4 854.6l-320-320-0.2-0.2c-0.3-0.3-0.6-0.6-0.9-1-0.2-0.2-0.4-0.4-0.5-0.6-0.2-0.2-0.3-0.4-0.5-0.6-0.2-0.3-0.4-0.5-0.6-0.8-0.1-0.2-0.2-0.3-0.3-0.5l-0.6-0.9c-0.1-0.1-0.2-0.3-0.3-0.4l-0.6-0.9c-0.1-0.1-0.2-0.3-0.3-0.4-0.2-0.3-0.3-0.6-0.5-0.9-0.1-0.2-0.2-0.3-0.3-0.5-0.2-0.3-0.3-0.6-0.4-0.9l-0.3-0.6c-0.1-0.3-0.2-0.5-0.4-0.8-0.1-0.2-0.2-0.4-0.3-0.7-0.1-0.2-0.2-0.5-0.3-0.7-0.1-0.3-0.2-0.5-0.3-0.8-0.1-0.2-0.1-0.4-0.2-0.6l-0.3-0.9c-0.1-0.2-0.1-0.4-0.2-0.6-0.1-0.3-0.2-0.6-0.3-1 0-0.2-0.1-0.4-0.1-0.5-0.1-0.3-0.2-0.7-0.2-1 0-0.2-0.1-0.4-0.1-0.6-0.1-0.3-0.1-0.7-0.2-1 0-0.2-0.1-0.4-0.1-0.6 0-0.3-0.1-0.6-0.1-0.9 0-0.3 0-0.6-0.1-0.9v-0.7c-0.1-1.1-0.1-2.1 0-3.2v-0.7c0-0.3 0-0.6 0.1-0.9 0-0.3 0.1-0.6 0.1-0.9 0-0.2 0.1-0.4 0.1-0.6 0-0.3 0.1-0.7 0.2-1 0-0.2 0.1-0.4 0.1-0.6 0.1-0.3 0.1-0.7 0.2-1 0-0.2 0.1-0.4 0.1-0.5 0.1-0.3 0.2-0.6 0.3-1 0.1-0.2 0.1-0.4 0.2-0.6l0.3-0.9c0.1-0.2 0.1-0.4 0.2-0.6 0.1-0.3 0.2-0.5 0.3-0.8 0.1-0.2 0.2-0.5 0.3-0.7 0.1-0.2 0.2-0.4 0.3-0.7 0.1-0.3 0.2-0.5 0.4-0.8l0.3-0.6c0.1-0.3 0.3-0.6 0.4-0.8 0.1-0.2 0.2-0.3 0.3-0.5 0.2-0.3 0.3-0.6 0.5-0.9 0.1-0.1 0.2-0.3 0.3-0.4l0.6-0.9c0.1-0.1 0.2-0.3 0.3-0.4 0.2-0.3 0.4-0.6 0.6-0.8 0.1-0.2 0.3-0.3 0.4-0.5 0.2-0.2 0.4-0.5 0.6-0.7 0.2-0.2 0.4-0.4 0.5-0.6 0.2-0.2 0.3-0.4 0.5-0.6 0.4-0.4 0.7-0.8 1.1-1.2l320-320c12.5-12.5 32.8-12.5 45.3 0s12.5 32.8 0 45.3L237.3 480H864c17.7 0 32 14.3 32 32s-14.3 32-32 32H237.3l265.4 265.4c6.2 6.2 9.4 14.4 9.4 22.6s-3.1 16.4-9.4 22.6c-12.6 12.5-32.8 12.5-45.3 0z" p-id="4925" fill="#2c2c2c"></path></svg>