<?xml version="1.0" standalone="no"?><!DOCTYPE svg PUBLIC "-//W3C//DTD SVG 1.1//EN" "http://www.w3.org/Graphics/SVG/1.1/DTD/svg11.dtd"><svg t="1562649357426" class="icon" viewBox="0 0 1024 1024" version="1.1" xmlns="http://www.w3.org/2000/svg" p-id="6593" xmlns:xlink="http://www.w3.org/1999/xlink" width="200" height="200"><defs><style type="text/css"></style></defs><path d="M993.28 481.28h-66.56c-5.12-46.08-15.36-87.04-30.72-133.12-15.36-40.96-40.96-76.8-66.56-107.52l46.08-46.08c10.24-10.24 10.24-30.72 0-40.96-10.24-10.24-30.72-10.24-40.96 0l-46.08 46.08c-30.72-30.72-71.68-51.2-107.52-66.56-40.96-15.36-87.04-30.72-133.12-30.72v-66.56c0-15.36-15.36-30.72-30.72-30.72s-30.72 15.36-30.72 30.72v66.56c-46.08 5.12-87.04 15.36-133.12 30.72-40.96 15.36-76.8 40.96-107.52 66.56l-46.08-46.08c-5.12-5.12-15.36-10.24-20.48-10.24-10.24 0-15.36 5.12-20.48 10.24-5.12 5.12-10.24 15.36-10.24 20.48 0 10.24 5.12 15.36 10.24 20.48l46.08 46.08c-30.72 30.72-51.2 71.68-66.56 107.52-15.36 40.96-30.72 87.04-30.72 133.12h-66.56c-15.36 0-30.72 15.36-30.72 30.72s15.36 30.72 30.72 30.72h66.56c5.12 46.08 15.36 87.04 30.72 133.12 15.36 40.96 40.96 76.8 66.56 107.52l-46.08 46.08c-5.12 5.12-10.24 15.36-10.24 20.48 0 10.24 5.12 15.36 10.24 20.48 5.12 5.12 15.36 10.24 20.48 10.24 10.24 0 15.36-5.12 20.48-10.24l46.08-46.08c30.72 30.72 71.68 51.2 107.52 66.56 40.96 15.36 87.04 30.72 133.12 30.72v66.56c0 15.36 15.36 30.72 30.72 30.72s30.72-15.36 30.72-30.72V921.6c46.08-5.12 87.04-15.36 133.12-30.72 40.96-15.36 76.8-40.96 107.52-66.56l46.08 46.08c5.12 5.12 15.36 10.24 20.48 10.24 10.24 0 25.6-5.12 25.6-20.48 5.12-10.24 0-25.6-5.12-30.72l-46.08-46.08c30.72-30.72 51.2-71.68 66.56-107.52 15.36-40.96 30.72-87.04 30.72-133.12h66.56c15.36 0 30.72-15.36 30.72-30.72s-15.36-30.72-30.72-30.72z m-481.28 389.12c-199.68 0-358.4-163.84-358.4-358.4 0-199.68 163.84-358.4 358.4-358.4s358.4 163.84 358.4 358.4c0 199.68-158.72 358.4-358.4 358.4z m-20.48-291.84v-230.4h-46.08v230.4c0 20.48-5.12 35.84-15.36 46.08-10.24 10.24-25.6 15.36-40.96 15.36s-30.72-5.12-40.96-15.36c-10.24-10.24-15.36-25.6-15.36-46.08v-230.4h-46.08v230.4c0 30.72 10.24 56.32 25.6 71.68 15.36 15.36 40.96 25.6 76.8 25.6s61.44-10.24 76.8-25.6c20.48-20.48 25.6-40.96 25.6-71.68z m256-230.4h-46.08l-66.56 250.88h-5.12l-66.56-250.88h-46.08l97.28 327.68h35.84l97.28-327.68z" fill="#f4ea2a" p-id="6594"></path></svg>