<?xml version="1.0" standalone="no"?><!DOCTYPE svg PUBLIC "-//W3C//DTD SVG 1.1//EN" "http://www.w3.org/Graphics/SVG/1.1/DTD/svg11.dtd"><svg t="1561890412009" class="icon" viewBox="0 0 1024 1024" version="1.1" xmlns="http://www.w3.org/2000/svg" p-id="12273" xmlns:xlink="http://www.w3.org/1999/xlink" width="200" height="200"><defs><style type="text/css"></style></defs><path d="M401.3312 130.6368c-91.4688 83.8656-73.7792 191.4368-30.336 260.736 31.8976 50.8928 50.8928 60.9536 72.1152 96.128 14.3872 23.8848 19.8144 53.76 23.7824 70.0672-11.1872 8.3712-20.7616 16.8192-27.008 23.8848-19.8656 22.4-90.3168 61.1072-123.8272 75.1872-134.4512 56.448-292.5568-109.9776-262.2464 56.96 17.1264 94.336 105.0368 164.1472 156.8 180.1984 118.5024 36.7616 202.5216-32.7168 240.512-105.1648 27.904-53.1968 26.9824-74.6752 46.6944-110.72 13.4912-24.6784 36.8896-44.544 48.896-56.1408 14.4384 6.4768 28.2368 11.1616 38.5024 13.2608 29.3376 5.9904 98.1504 47.5136 127.104 69.4528 116.224 88.064 51.4816 308.2752 180.736 198.3744 73.0368-62.1312 89.3952-173.1584 77.3376-225.9968-27.5968-120.9856-129.8432-158.8224-211.5584-155.392-60.0064 2.5088-78.1568 14.0544-119.2192 15.0784-30.592 0.768-62.1312-11.4688-76.9792-15.2064-1.5872-13.824-4.0704-26.3168-6.9888-35.2768-9.3184-28.4416-7.2704-108.8256-2.56-144.8448 18.9952-144.5888 242.4064-197.2992 82.944-255.232C545.8688 53.2736 441.2928 94.0288 401.3312 130.6368z" p-id="12274" fill="#3498db"></path></svg>