<?xml version="1.0" standalone="no"?><!DOCTYPE svg PUBLIC "-//W3C//DTD SVG 1.1//EN" "http://www.w3.org/Graphics/SVG/1.1/DTD/svg11.dtd"><svg t="1562649479595" class="icon" viewBox="0 0 1024 1024" version="1.1" xmlns="http://www.w3.org/2000/svg" p-id="7400" xmlns:xlink="http://www.w3.org/1999/xlink" width="200" height="200"><defs><style type="text/css"></style></defs><path d="M578 485.2h-7.4c0-87.7-71.4-159.1-159.1-159.1s-159.1 71.4-159.1 159.1H245c0-91.8 74.7-166.4 166.4-166.4S578 393.5 578 485.2z" p-id="7401" fill="#ffffff"></path><path d="M596.4 503.6h-44.2v-18.4c0-77.6-63.1-140.7-140.7-140.7s-140.7 63.1-140.7 140.7v18.4h-44.2v-18.4c0-101.9 82.9-184.8 184.8-184.8s184.8 82.9 184.8 184.8v18.4z" p-id="7402" fill="#ffffff"></path><path d="M589.4 767.8H232.1c-83.2 0-151-67.8-151-151s67.7-151 151-151h32.6V510h-32.6c-58.9 0-106.8 47.9-106.8 106.9 0 58.9 47.9 106.9 106.8 106.9h357.3c58.9 0 106.8-47.9 106.8-106.9 0-58.9-47.9-106.9-106.8-106.9H556v-44.2h33.4c83.2 0 151 67.8 151 151s-67.8 151-151 151zM786.7 355h-7.4c0-87.7-71.4-159.1-159.1-159.1-51.2 0-99.5 24.9-129.4 66.5l-6-4.3c31.2-43.6 81.8-69.6 135.3-69.6 91.9 0.1 166.6 74.7 166.6 166.5z" p-id="7403" fill="#ffffff"></path><path d="M805.1 373.4h-44.2V355c0-77.6-63.1-140.7-140.7-140.7-45.2 0-88 22-114.4 58.8l-10.7 15-35.9-25.7 10.7-14.9c34.7-48.4 90.9-77.2 150.3-77.2 101.9 0 184.8 82.9 184.8 184.8v18.3z" p-id="7404" fill="#ffffff"></path><path d="M798 619.2v-7.4c69 0 125.2-56.2 125.2-125.3S867.1 361.3 798 361.3h-15v-7.4h15c73.1 0 132.6 59.5 132.6 132.6S871.1 619.2 798 619.2z" p-id="7405" fill="#ffffff"></path><path d="M798 637.6h-18.4v-44.2H798c58.9 0 106.8-47.9 106.8-106.9S856.9 379.7 798 379.7h-33.4v-44.2H798c83.2 0 151 67.8 151 151s-67.7 151.1-151 151.1z" p-id="7406" fill="#ffffff"></path></svg>